#Comment line ignore any data following # character 
#Hierarchical Translation and Rotation (.htr) file 
[Header]	
#Header keywords are followed by a single value 
FileType HTR		#Single word string
DataType HTRS		#Translation followed by rotation and scale data
FileVersion 1		#integer
NumSegments 84		#integer
NumFrames 2		#integer
DataFrameRate 30		#integer, data frame rate in this file
EulerRotationOrder ZYX
CalibrationUnits mm
RotationUnits Degrees
GlobalAxisofGravity Y
BoneLengthAxis Y
ScaleFactor 1.00
[SegmentNames&Hierarchy]
#CHILD	PARENT
MASTER GLOBAL
root MASTER
chest root
L_mid_tent01 root
R_mid_tent01 root
spine01 root
Bip01_Neck chest
L_humerus chest
R_humerus chest
weapon_bone chest
Bip01_Head Bip01_Neck
eye_left_bone Bip01_Head
eye_right_bone Bip01_Head
L_forearm L_humerus
L_front_hand L_forearm
L_weapon_bone L_forearm
L_front_hand01_01 L_front_hand
L_front_hand02_01 L_front_hand
L_front_hand03_01 L_front_hand
L_front_hand01_02 L_front_hand01_01
L_front_hand02_02 L_front_hand02_01
L_front_hand03_02 L_front_hand03_01
R_forearm R_humerus
R_front_hand R_forearm
R_weapon_bone R_forearm
R_front_hand01_01 R_front_hand
R_front_hand02_01 R_front_hand
R_front_hand03_01 R_front_hand
R_front_hand01_02 R_front_hand01_01
R_front_hand02_02 R_front_hand02_01
R_front_hand03_02 R_front_hand03_01
null_rope01_connect L_mid_tent01
Rope1_Seg01 null_rope01_connect
Rope1_Seg02 Rope1_Seg01
Rope1_Seg03 Rope1_Seg02
Rope1_Seg04 Rope1_Seg03
Rope1_Seg05 Rope1_Seg04
Rope1_Seg06 Rope1_Seg05
Rope1_Seg07 Rope1_Seg06
Rope1_Seg09 Rope1_Seg07
L_mid_hand01 Rope1_Seg09
L_mid_hand02 Rope1_Seg09
L_mid_hand03 Rope1_Seg09
null_rope02_connect R_mid_tent01
Rope2_Seg01 null_rope02_connect
Rope2_Seg02 Rope2_Seg01
Rope2_Seg03 Rope2_Seg02
Rope2_Seg04 Rope2_Seg03
Rope2_Seg05 Rope2_Seg04
Rope2_Seg06 Rope2_Seg05
Rope2_Seg07 Rope2_Seg06
Rope2_Seg09 Rope2_Seg07
R_mid_hand01 Rope2_Seg09
R_mid_hand02 Rope2_Seg09
R_mid_hand03 Rope2_Seg09
spine02 spine01
spine03 spine02
pelvis spine03
null_rope03_connect pelvis
null_rope04_connect pelvis
Rope3_Seg01 null_rope03_connect
Rope3_Seg02 Rope3_Seg01
Rope3_Seg03 Rope3_Seg02
Rope3_Seg04 Rope3_Seg03
Rope3_Seg05 Rope3_Seg04
Rope3_Seg06 Rope3_Seg05
Rope3_Seg07 Rope3_Seg06
Rope3_Seg08 Rope3_Seg07
Rope3_Seg09 Rope3_Seg08
R_rear_hand01 Rope3_Seg09
R_rear_hand02 Rope3_Seg09
R_rear_hand03 Rope3_Seg09
Rope4_Seg01 null_rope04_connect
Rope4_Seg02 Rope4_Seg01
Rope4_Seg03 Rope4_Seg02
Rope4_Seg04 Rope4_Seg03
Rope4_Seg05 Rope4_Seg04
Rope4_Seg06 Rope4_Seg05
Rope4_Seg07 Rope4_Seg06
Rope4_Seg08 Rope4_Seg07
Rope4_Seg09 Rope4_Seg08
L_rear_hand01 Rope4_Seg09
L_rear_hand02 Rope4_Seg09
L_rear_hand03 Rope4_Seg09
[BasePosition]
#SegmentName Tx, Ty, Tz, Rx, Ry, Rz, BoneLength
MASTER 0.000000 0.000000 0.000000 -90.000000 0.000000 0.000000 10.000000 
root 0.000000 0.000000 0.000000 0.000000 0.000000 0.000000 10.000000 
chest 0.000000 0.000000 0.000000 0.000000 0.000000 0.000000 10.000000 
L_mid_tent01 0.000000 0.000000 0.000000 0.000000 0.000000 0.000000 10.000000 
R_mid_tent01 0.000000 0.000000 0.000000 0.000000 0.000000 0.000000 10.000000 
spine01 0.000000 0.000000 0.000000 0.000000 0.000000 0.000000 10.000000 
Bip01_Neck 0.000000 0.000000 0.000000 0.000000 0.000000 0.000000 10.000000 
L_humerus 0.000000 0.000000 0.000000 0.000000 0.000000 0.000000 10.000000 
R_humerus 0.000000 0.000000 0.000000 0.000000 0.000000 0.000000 10.000000 
weapon_bone 0.000000 0.000000 0.000000 0.000000 0.000000 0.000000 10.000000 
Bip01_Head 0.000000 0.000000 0.000000 0.000000 0.000000 0.000000 10.000000 
eye_left_bone 0.000000 0.000000 0.000000 0.000000 0.000000 0.000000 10.000000 
eye_right_bone 0.000000 0.000000 0.000000 0.000000 0.000000 0.000000 10.000000 
L_forearm 0.000000 0.000000 0.000000 0.000000 0.000000 0.000000 10.000000 
L_front_hand 0.000000 0.000000 0.000000 0.000000 0.000000 0.000000 10.000000 
L_weapon_bone 0.000000 0.000000 0.000000 0.000000 0.000000 0.000000 10.000000 
L_front_hand01_01 0.000000 0.000000 0.000000 0.000000 0.000000 0.000000 10.000000 
L_front_hand02_01 0.000000 0.000000 0.000000 0.000000 0.000000 0.000000 10.000000 
L_front_hand03_01 0.000000 0.000000 0.000000 0.000000 0.000000 0.000000 10.000000 
L_front_hand01_02 0.000000 0.000000 0.000000 0.000000 0.000000 0.000000 10.000000 
L_front_hand02_02 0.000000 0.000000 0.000000 0.000000 0.000000 0.000000 10.000000 
L_front_hand03_02 0.000000 0.000000 0.000000 0.000000 0.000000 0.000000 10.000000 
R_forearm 0.000000 0.000000 0.000000 0.000000 0.000000 0.000000 10.000000 
R_front_hand 0.000000 0.000000 0.000000 0.000000 0.000000 0.000000 10.000000 
R_weapon_bone 0.000000 0.000000 0.000000 0.000000 0.000000 0.000000 10.000000 
R_front_hand01_01 0.000000 0.000000 0.000000 0.000000 0.000000 0.000000 10.000000 
R_front_hand02_01 0.000000 0.000000 0.000000 0.000000 0.000000 0.000000 10.000000 
R_front_hand03_01 0.000000 0.000000 0.000000 0.000000 0.000000 0.000000 10.000000 
R_front_hand01_02 0.000000 0.000000 0.000000 0.000000 0.000000 0.000000 10.000000 
R_front_hand02_02 0.000000 0.000000 0.000000 0.000000 0.000000 0.000000 10.000000 
R_front_hand03_02 0.000000 0.000000 0.000000 0.000000 0.000000 0.000000 10.000000 
null_rope01_connect 0.000000 0.000000 0.000000 0.000000 0.000000 0.000000 10.000000 
Rope1_Seg01 0.000000 0.000000 0.000000 0.000000 0.000000 0.000000 10.000000 
Rope1_Seg02 0.000000 0.000000 0.000000 0.000000 0.000000 0.000000 10.000000 
Rope1_Seg03 0.000000 0.000000 0.000000 0.000000 0.000000 0.000000 10.000000 
Rope1_Seg04 0.000000 0.000000 0.000000 0.000000 0.000000 0.000000 10.000000 
Rope1_Seg05 0.000000 0.000000 0.000000 0.000000 0.000000 0.000000 10.000000 
Rope1_Seg06 0.000000 0.000000 0.000000 0.000000 0.000000 0.000000 10.000000 
Rope1_Seg07 0.000000 0.000000 0.000000 0.000000 0.000000 0.000000 10.000000 
Rope1_Seg09 0.000000 0.000000 0.000000 0.000000 0.000000 0.000000 10.000000 
L_mid_hand01 0.000000 0.000000 0.000000 0.000000 0.000000 0.000000 10.000000 
L_mid_hand02 0.000000 0.000000 0.000000 0.000000 0.000000 0.000000 10.000000 
L_mid_hand03 0.000000 0.000000 0.000000 0.000000 0.000000 0.000000 10.000000 
null_rope02_connect 0.000000 0.000000 0.000000 0.000000 0.000000 0.000000 10.000000 
Rope2_Seg01 0.000000 0.000000 0.000000 0.000000 0.000000 0.000000 10.000000 
Rope2_Seg02 0.000000 0.000000 0.000000 0.000000 0.000000 0.000000 10.000000 
Rope2_Seg03 0.000000 0.000000 0.000000 0.000000 0.000000 0.000000 10.000000 
Rope2_Seg04 0.000000 0.000000 0.000000 0.000000 0.000000 0.000000 10.000000 
Rope2_Seg05 0.000000 0.000000 0.000000 0.000000 0.000000 0.000000 10.000000 
Rope2_Seg06 0.000000 0.000000 0.000000 0.000000 0.000000 0.000000 10.000000 
Rope2_Seg07 0.000000 0.000000 0.000000 0.000000 0.000000 0.000000 10.000000 
Rope2_Seg09 0.000000 0.000000 0.000000 0.000000 0.000000 0.000000 10.000000 
R_mid_hand01 0.000000 0.000000 0.000000 0.000000 0.000000 0.000000 10.000000 
R_mid_hand02 0.000000 0.000000 0.000000 0.000000 0.000000 0.000000 10.000000 
R_mid_hand03 0.000000 0.000000 0.000000 0.000000 0.000000 0.000000 10.000000 
spine02 0.000000 0.000000 0.000000 0.000000 0.000000 0.000000 10.000000 
spine03 0.000000 0.000000 0.000000 0.000000 0.000000 0.000000 10.000000 
pelvis 0.000000 0.000000 0.000000 0.000000 0.000000 0.000000 10.000000 
null_rope03_connect 0.000000 0.000000 0.000000 0.000000 0.000000 0.000000 10.000000 
null_rope04_connect 0.000000 0.000000 0.000000 0.000000 0.000000 0.000000 10.000000 
Rope3_Seg01 0.000000 0.000000 0.000000 0.000000 0.000000 0.000000 10.000000 
Rope3_Seg02 0.000000 0.000000 0.000000 0.000000 0.000000 0.000000 10.000000 
Rope3_Seg03 0.000000 0.000000 0.000000 0.000000 0.000000 0.000000 10.000000 
Rope3_Seg04 0.000000 0.000000 0.000000 0.000000 0.000000 0.000000 10.000000 
Rope3_Seg05 0.000000 0.000000 0.000000 0.000000 0.000000 0.000000 10.000000 
Rope3_Seg06 0.000000 0.000000 0.000000 0.000000 0.000000 0.000000 10.000000 
Rope3_Seg07 0.000000 0.000000 0.000000 0.000000 0.000000 0.000000 10.000000 
Rope3_Seg08 0.000000 0.000000 0.000000 0.000000 0.000000 0.000000 10.000000 
Rope3_Seg09 0.000000 0.000000 0.000000 0.000000 0.000000 0.000000 10.000000 
R_rear_hand01 0.000000 0.000000 0.000000 0.000000 0.000000 0.000000 10.000000 
R_rear_hand02 0.000000 0.000000 0.000000 0.000000 0.000000 0.000000 10.000000 
R_rear_hand03 0.000000 0.000000 0.000000 0.000000 0.000000 0.000000 10.000000 
Rope4_Seg01 0.000000 0.000000 0.000000 0.000000 0.000000 0.000000 10.000000 
Rope4_Seg02 0.000000 0.000000 0.000000 0.000000 0.000000 0.000000 10.000000 
Rope4_Seg03 0.000000 0.000000 0.000000 0.000000 0.000000 0.000000 10.000000 
Rope4_Seg04 0.000000 0.000000 0.000000 0.000000 0.000000 0.000000 10.000000 
Rope4_Seg05 0.000000 0.000000 0.000000 0.000000 0.000000 0.000000 10.000000 
Rope4_Seg06 0.000000 0.000000 0.000000 0.000000 0.000000 0.000000 10.000000 
Rope4_Seg07 0.000000 0.000000 0.000000 0.000000 0.000000 0.000000 10.000000 
Rope4_Seg08 0.000000 0.000000 0.000000 0.000000 0.000000 0.000000 10.000000 
Rope4_Seg09 0.000000 0.000000 0.000000 0.000000 0.000000 0.000000 10.000000 
L_rear_hand01 0.000000 0.000000 0.000000 0.000000 0.000000 0.000000 10.000000 
L_rear_hand02 0.000000 0.000000 0.000000 0.000000 0.000000 0.000000 10.000000 
L_rear_hand03 0.000000 0.000000 0.000000 0.000000 0.000000 0.000000 10.000000 
#Beginning of Data. Separated by tabs
#Fr	Tx	Ty	Tz	Rx	Ry	Rz	SF
[MASTER]
11 399.590240 2055.860840 1915.316895 0.001660 0.001660 0.001660 2838.075684
12 554.460266 2282.087158 2126.915527 0.001660 0.001660 0.001660 3168.456543
[root]
11 43.988419 -51.398315 925.101135 -21.685087 25.021399 -114.731293 927.571472
12 33.812523 -71.803276 882.694092 -18.078112 23.977417 -112.886688 886.254944
[chest]
11 -84.512650 -34.090519 0.000000 32.901108 -4.718976 174.676041 91.129311
12 -84.512650 -34.090519 0.000000 28.653883 0.940321 169.236450 91.129311
[L_mid_tent01]
11 27.299168 22.179296 -249.918671 -0.242067 20.114885 78.878372 252.381683
12 27.299177 22.179300 -249.918671 -0.557040 19.954317 78.722839 252.381683
[R_mid_tent01]
11 23.228794 24.509907 226.238495 168.972626 -21.987171 67.978378 228.744751
12 23.228794 24.509907 226.238495 168.329529 -22.567265 67.904922 228.744751
[spine01]
11 -0.361383 -0.195265 0.000000 -0.000001 -0.000007 22.052340 0.410763
12 -0.361383 -0.195265 0.000000 -0.000001 -0.000007 22.052340 0.410763
[Bip01_Neck]
11 165.484543 71.581718 0.000119 176.643677 -1.657967 43.431911 180.302734
12 165.484543 71.581718 0.000119 176.643677 -1.657967 43.431911 180.302734
[L_humerus]
11 -13.983130 -135.272980 -120.471481 102.378662 83.927719 -166.923126 181.680161
12 -13.983130 -135.272980 -120.471481 121.817383 82.061378 -147.373642 181.680161
[R_humerus]
11 -13.983309 -135.273102 125.287651 -172.439240 -66.725060 -92.491844 184.909012
12 -13.983309 -135.273102 125.287651 -172.236084 -64.526787 -92.688164 184.909012
[weapon_bone]
11 235.964890 -300.705902 0.000000 0.000000 -89.951546 -128.212341 382.234833
12 235.964890 -300.705902 0.000000 0.000000 -89.951546 -128.212341 382.234833
[Bip01_Head]
11 213.449402 185.702209 11.947936 17.739578 2.347869 -43.885197 283.176086
12 213.362717 185.941696 8.855896 17.816887 4.962135 -43.863228 283.154358
[eye_left_bone]
11 -24.626970 125.451866 -64.772606 0.000000 -90.000000 -99.840431 143.318359
12 -24.626970 125.451866 -64.772606 0.000000 -90.000000 -99.840431 143.318359
[eye_right_bone]
11 -24.626970 125.451866 64.327362 0.000000 -89.965736 80.156380 143.117676
12 -24.626970 125.451866 64.327362 0.000000 -89.965736 80.156380 143.117676
[L_forearm]
11 322.776093 0.000000 -0.000119 0.000420 -0.002309 -110.609222 322.776093
12 322.776093 0.000000 -0.000119 0.000422 -0.002309 -110.693420 322.776093
[L_front_hand]
11 241.149185 -0.042021 -3.300071 -178.667953 -1.835447 -27.422342 241.171753
12 241.149185 -0.042021 -3.300071 -178.667953 -1.835447 -27.422342 241.171753
[L_weapon_bone]
11 156.183838 0.000000 0.000000 0.000014 0.000007 0.000001 156.183838
12 156.183838 0.000000 0.000000 0.000014 0.000007 0.000001 156.183838
[L_front_hand01_01]
11 86.095154 20.947098 -0.655860 -0.273295 -0.533469 64.985298 88.609184
12 86.095154 20.947098 -0.655860 -0.274251 -0.532978 65.190620 88.609184
[L_front_hand02_01]
11 86.935165 -11.437475 24.513514 140.772385 -54.262844 -45.183468 91.046425
12 86.935165 -11.437475 24.513514 140.993607 -54.388721 -45.452248 91.046425
[L_front_hand03_01]
11 86.637497 -14.123976 -20.424902 -141.183044 52.494118 -47.265888 90.126129
12 86.637497 -14.123976 -20.424902 -141.389969 52.619431 -47.524090 90.126129
[L_front_hand01_02]
11 71.020905 -0.000179 0.000030 0.000315 -0.002326 -105.406754 71.020905
12 71.020905 -0.000179 0.000030 0.000315 -0.002326 -105.400543 71.020905
[L_front_hand02_02]
11 71.020927 -0.000119 0.000060 0.000315 -0.002326 -105.406754 71.020927
12 71.020927 -0.000119 0.000060 0.000315 -0.002326 -105.400543 71.020927
[L_front_hand03_02]
11 71.020905 -0.000060 0.000060 0.000315 -0.002326 -105.406754 71.020905
12 71.020905 -0.000060 0.000060 0.000315 -0.002326 -105.400543 71.020905
[R_forearm]
11 322.776428 -0.000060 0.000030 0.201410 0.067269 -109.262070 322.776428
12 322.776428 -0.000060 0.000030 0.201360 0.067418 -109.346954 322.776428
[R_front_hand]
11 238.847015 -0.006795 2.210259 -2.635298 -10.645462 -26.312506 238.857239
12 238.847015 -0.006795 2.210259 -2.635298 -10.645460 -26.312502 238.857239
[R_weapon_bone]
11 155.664093 0.002503 -0.000030 0.003487 0.001180 -90.988930 155.664078
12 155.664093 0.002503 -0.000030 0.003487 0.001180 -90.988930 155.664078
[R_front_hand01_01]
11 87.624611 14.231146 22.918642 -138.890259 -53.085796 42.950848 91.683487
12 87.624611 14.231146 22.918642 -138.456909 -52.798630 42.405624 91.683487
[R_front_hand02_01]
11 89.356956 14.367283 -19.491137 139.720169 51.522045 45.641415 92.579636
12 89.356956 14.367283 -19.491137 139.300415 51.240429 45.105949 92.579636
[R_front_hand03_01]
11 87.286232 -22.307278 -0.143439 0.065790 -0.451534 -63.409447 90.091743
12 87.286232 -22.307278 -0.143439 0.064051 -0.451784 -62.968155 90.091743
[R_front_hand01_02]
11 71.020905 0.000060 0.000119 0.002323 -0.000334 106.381714 71.020905
12 71.020905 0.000060 0.000119 0.002323 -0.000334 106.381714 71.020905
[R_front_hand02_02]
11 71.020844 -0.000030 -0.000119 0.002323 -0.000334 106.381714 71.020836
12 71.020844 -0.000030 -0.000119 0.002323 -0.000334 106.381714 71.020836
[R_front_hand03_02]
11 71.020905 0.000000 0.000030 0.002323 -0.000334 106.381714 71.020905
12 71.020905 0.000000 0.000030 0.002323 -0.000334 106.381714 71.020905
[null_rope01_connect]
11 328.732483 0.000000 -0.000238 -43.369415 -26.403845 37.522655 328.732483
12 328.732483 0.000000 -0.000238 -39.803764 -24.737652 35.333099 328.732483
[Rope1_Seg01]
11 0.000038 -0.000181 0.000153 -68.907501 42.171158 89.014084 0.000240
12 0.000038 -0.000195 0.000153 -57.613495 46.138668 104.403046 0.000250
[Rope1_Seg02]
11 139.999863 -0.000179 0.000000 11.203410 6.154766 -12.566062 139.999863
12 139.999863 -0.000179 0.000000 7.117751 7.333251 -14.755465 139.999863
[Rope1_Seg03]
11 139.999924 0.000060 -0.000060 69.737885 3.396459 -15.703184 139.999924
12 139.999924 0.000060 -0.000060 36.919353 5.124492 -17.481508 139.999924
[Rope1_Seg04]
11 139.999924 -0.000060 -0.000119 47.229290 -13.010943 -5.836548 139.999924
12 139.999924 -0.000060 -0.000119 59.285618 -6.525165 -11.867159 139.999924
[Rope1_Seg05]
11 139.999832 0.000119 -0.000060 21.394867 -14.059793 -0.948437 139.999832
12 139.999832 0.000119 -0.000060 36.053726 -13.209064 -6.234322 139.999832
[Rope1_Seg06]
11 139.999954 0.000119 -0.000060 13.686623 -15.096219 0.510930 139.999954
12 139.999954 0.000119 -0.000060 20.521246 -19.964911 -0.097458 139.999954
[Rope1_Seg07]
11 139.999985 0.000060 0.000000 3.657863 -8.450084 3.234839 139.999985
12 139.999985 0.000060 0.000000 4.534425 -12.037127 5.084789 139.999985
[Rope1_Seg09]
11 121.602913 0.000119 -0.000089 -89.793175 -1.359789 0.847147 121.602913
12 121.602913 0.000119 -0.000089 -89.793175 -1.359789 0.847147 121.602913
[L_mid_hand01]
11 103.859421 1.038730 8.195221 109.056198 -40.604698 -13.201401 104.187431
12 103.859421 1.038730 8.195221 109.203865 -41.086700 -13.424594 104.187431
[L_mid_hand02]
11 105.572853 -4.139662 -10.864139 -146.713593 31.476528 -37.902313 106.211075
12 105.572853 -4.139662 -10.864139 -146.975464 31.757511 -38.401608 106.211075
[L_mid_hand03]
11 104.641464 17.579376 -3.913581 -14.267233 12.322316 43.898396 106.179977
12 104.641464 17.579376 -3.913581 -14.157615 12.442541 44.406353 106.179977
[null_rope02_connect]
11 328.732849 0.000179 -0.000119 171.955826 1.759159 -44.414890 328.732849
12 328.732849 0.000179 -0.000119 175.110977 -0.699713 -43.943909 328.732849
[Rope2_Seg01]
11 0.000091 -0.000046 0.000000 -67.026588 -71.683136 -124.761627 0.000102
12 0.000090 -0.000063 0.000000 -27.719803 -65.283875 -166.486511 0.000110
[Rope2_Seg02]
11 139.999741 -0.000060 -0.000119 2.335362 -32.115768 26.706034 139.999756
12 139.999741 -0.000060 -0.000119 -4.961788 -32.532158 15.936910 139.999756
[Rope2_Seg03]
11 140.000107 0.000030 0.000000 111.828781 -28.241901 34.844963 140.000107
12 140.000107 0.000030 0.000000 151.553619 -48.405586 33.146214 140.000107
[Rope2_Seg04]
11 139.999802 0.000000 -0.000060 14.259325 10.173213 3.148904 139.999802
12 139.999802 0.000000 -0.000060 49.525158 16.000212 12.652613 139.999802
[Rope2_Seg05]
11 139.999985 -0.000060 0.000119 8.007351 4.533835 3.078101 139.999985
12 139.999985 -0.000060 0.000119 11.028933 29.661684 -0.893098 139.999985
[Rope2_Seg06]
11 139.999893 -0.000030 -0.000119 9.405203 11.774283 2.884325 139.999893
12 139.999893 -0.000030 -0.000119 0.134047 13.841442 -4.781116 139.999893
[Rope2_Seg07]
11 139.999893 0.000060 -0.000060 4.452937 11.271338 0.476118 139.999893
12 139.999893 0.000060 -0.000060 -0.004833 1.450778 -0.512798 139.999893
[Rope2_Seg09]
11 121.338966 0.000089 -0.000060 33.793236 -1.359788 -0.847141 121.338966
12 121.338966 0.000089 -0.000060 33.793236 -1.359788 -0.847141 121.338966
[R_mid_hand01]
11 104.680779 11.144459 -10.335981 -33.085678 36.191685 44.913235 105.778534
12 104.680779 11.144459 -10.335981 -34.514381 34.853710 42.458721 105.778534
[R_mid_hand02]
11 104.070427 2.443552 8.231699 67.611237 -49.370296 17.897308 104.424065
12 104.070427 2.443552 8.231699 68.611877 -47.139297 16.550779 104.424065
[R_mid_hand03]
11 106.028137 -11.221827 -5.996406 -171.571182 13.427420 -54.737041 106.788818
12 106.028137 -11.221827 -5.996406 -171.008881 13.064262 -52.295349 106.788818
[spine02]
11 129.756927 0.001550 0.000119 0.479676 -4.031392 -14.635648 129.756927
12 129.756927 0.001550 0.000119 0.488867 -4.030246 -14.757382 129.756927
[spine03]
11 78.613968 0.081653 -4.898976 1.970051 3.797495 17.550753 78.766502
12 78.613960 0.081655 -4.898975 1.974552 3.794733 17.618462 78.766495
[pelvis]
11 169.435242 0.051022 0.000000 -0.053101 -0.181568 12.534380 169.435257
12 169.435242 0.051022 0.000000 -0.052596 -0.181716 12.216047 169.435257
[null_rope03_connect]
11 -1.257226 -2.466202 137.391083 -30.942799 -8.648394 75.088547 137.418976
12 -1.257226 -2.466202 137.391083 -28.448519 -6.571447 73.845695 137.418976
[null_rope04_connect]
11 -1.259640 -2.480268 -137.844437 -30.942799 -8.648394 75.088547 137.872513
12 -1.259640 -2.480268 -137.844437 -28.448519 -6.571447 73.845695 137.872513
[Rope3_Seg01]
11 -0.000037 0.000000 -0.000018 5.479638 2.040895 -130.397186 0.000041
12 -0.000037 0.000000 -0.000020 13.744927 -4.002896 -125.329712 0.000042
[Rope3_Seg02]
11 139.999924 -0.000119 0.000060 33.385674 -40.063412 26.339207 139.999924
12 139.999924 -0.000119 0.000060 25.301487 -35.824497 31.986887 139.999924
[Rope3_Seg03]
11 139.999924 -0.000119 0.000119 6.371023 -13.219732 42.056355 139.999924
12 139.999924 -0.000119 0.000119 4.116991 -13.068693 37.621468 139.999924
[Rope3_Seg04]
11 139.999924 0.000119 0.000000 -0.419428 -1.623514 12.805328 139.999924
12 139.999924 0.000119 0.000000 -0.553643 -1.285566 12.630999 139.999924
[Rope3_Seg05]
11 139.999924 -0.000238 0.000060 -1.958366 -1.523211 13.927773 139.999924
12 139.999924 -0.000238 0.000060 -1.521853 1.432939 14.908855 139.999924
[Rope3_Seg06]
11 139.999893 -0.000119 -0.000060 -5.729687 -2.493412 18.351168 139.999893
12 139.999893 -0.000119 -0.000060 -4.781389 1.728196 18.942619 139.999893
[Rope3_Seg07]
11 139.999771 0.000060 -0.000119 -6.296172 -2.836554 11.925922 139.999771
12 139.999771 0.000060 -0.000119 -6.651294 -0.499168 12.255743 139.999771
[Rope3_Seg08]
11 139.999985 -0.000060 0.000000 -4.884449 -2.476598 7.008691 139.999985
12 139.999985 -0.000060 0.000000 -5.732368 -1.138144 7.253863 139.999985
[Rope3_Seg09]
11 90.185997 -0.000179 -0.000060 89.793228 -1.359877 -0.847183 90.185997
12 90.185997 -0.000179 -0.000060 89.793228 -1.359877 -0.847183 90.185997
[R_rear_hand01]
11 103.366196 -6.073594 -10.757982 -167.001480 21.149061 -46.791374 104.101845
12 103.366196 -6.073594 -10.757982 -166.071487 20.559361 -44.173790 104.101845
[R_rear_hand02]
11 100.509819 12.039542 -7.992327 -28.108641 27.848612 44.189137 101.543350
12 100.509819 12.039542 -7.992327 -29.245224 26.638008 41.706211 101.543350
[R_rear_hand03]
11 101.539970 5.215704 5.435467 81.609138 -47.214466 10.038949 101.819031
12 101.539970 5.215704 5.435467 81.983536 -44.720295 9.521895 101.819031
[Rope4_Seg01]
11 0.000007 -0.000181 -0.000153 -154.415054 39.492378 -167.116013 0.000237
12 0.000007 -0.000195 -0.000153 -154.822540 37.472221 -169.171951 0.000248
[Rope4_Seg02]
11 139.999985 0.000060 0.000119 -15.968921 -3.810210 9.249146 139.999985
12 139.999985 0.000060 0.000119 -16.703903 -4.009735 8.730189 139.999985
[Rope4_Seg03]
11 139.999924 0.000000 -0.000238 -18.907972 -8.580748 11.062033 139.999924
12 139.999924 0.000000 -0.000238 -19.329525 -8.986423 10.405177 139.999924
[Rope4_Seg04]
11 139.999985 0.000000 0.000119 -14.775847 -14.681666 9.210616 139.999985
12 139.999985 0.000000 0.000119 -15.162107 -15.549523 8.859469 139.999985
[Rope4_Seg05]
11 139.999802 -0.000060 -0.000119 -6.970367 -15.172436 4.410589 139.999802
12 139.999802 -0.000060 -0.000119 -7.125822 -16.476868 4.199365 139.999802
[Rope4_Seg06]
11 139.999924 0.000000 0.000060 -4.350500 -12.488215 4.949954 139.999924
12 139.999924 0.000000 0.000060 -3.514518 -13.019627 3.446026 139.999924
[Rope4_Seg07]
11 139.999802 0.000000 0.000000 -3.164101 -12.375554 6.533660 139.999802
12 139.999802 0.000000 0.000000 -2.066831 -12.465450 4.213915 139.999802
[Rope4_Seg08]
11 139.999924 0.000000 0.000119 -2.472272 -8.906870 3.911294 139.999924
12 139.999924 0.000000 0.000119 -1.924840 -9.114075 2.502320 139.999924
[Rope4_Seg09]
11 90.185791 0.000060 0.000060 -135.617828 2.228885 0.850567 90.185791
12 90.185791 0.000060 0.000060 -135.617828 2.228885 0.850567 90.185791
[L_rear_hand01]
11 101.696655 -8.392275 -7.654577 -30.608620 -25.023813 141.417831 102.329041
12 101.696655 -8.392275 -7.654577 -29.807377 -26.000988 139.554398 102.329041
[L_rear_hand02]
11 102.726799 -1.568258 5.773216 82.398407 41.509426 171.081650 102.900848
12 102.726799 -1.568258 5.773216 82.157768 43.437939 170.726135 102.900848
[L_rear_hand03]
11 104.552910 9.721220 -10.420293 -164.917755 -19.749290 -139.167572 105.519653
12 104.552910 9.721220 -10.420293 -165.604721 -20.244781 -137.169205 105.519653
